<?xml version="1.0" encoding="utf-8"?>
<!-- Generator: Adobe Illustrator 23.0.1, SVG Export Plug-In . SVG Version: 6.00 Build 0)  -->
<svg version="1.1" id="icon-city" xmlns="http://www.w3.org/2000/svg" xmlns:xlink="http://www.w3.org/1999/xlink" x="0px" y="0px"
	 viewBox="0 0 24 24" style="enable-background:new 0 0 24 24;" xml:space="preserve">
<style type="text/css">
	.st0{fill-rule:evenodd;clip-rule:evenodd;fill:#3366CC;}
</style>
<path class="st0" d="M12.4,19.8c0.3-0.4,0.6-0.6,1.1-1.1c1-1.1,0.4-0.4,2.4-2.5c2-2.2,2.6-3.6,2.6-5.5c0-3.8-2.8-7.3-6.5-7.3
	s-6.6,3.5-6.6,7.3c0,1.9,0.8,3.4,2.6,5.4c1.8,2,1.3,1.5,2.4,2.6c0.5,0.5,0.6,0.6,1,1c0.1,0.1,0.5,0.4,0.6,0.5
	C12.1,20.1,12.3,19.9,12.4,19.8z M3.9,10.3C3.9,5.7,7.4,2,12.1,2c4.7,0,8,3.7,8,8.3c0,2.4-1,4.8-2.9,6.7c-0.4,0.5-1.4,1.6-2.5,2.7
	c-0.5,0.5-1,1-1.5,1.5c-0.2,0.2-0.4,0.4-0.5,0.5c-0.1,0.1-0.1,0.1-0.2,0.1C12.3,22,12.3,22,12,22c-0.4,0-0.4,0-2.5-2.2
	c-1.1-1.2-2.2-2.2-2.5-2.7C5.1,15.1,3.9,12.6,3.9,10.3L3.9,10.3z M12,14.6c-2.1,0-4-1.9-4-4.1c0-2.2,1.9-3.9,4-3.9
	c2.1,0,4,1.7,4,3.9C16,12.7,14.1,14.6,12,14.6z M12,13.1c1.4,0,2.5-1.2,2.5-2.6c0-1.4-1.1-2.4-2.5-2.4c-1.4,0-2.5,1-2.5,2.4
	S10.6,13.1,12,13.1z"/>
</svg>
