<?xml version="1.0" encoding="utf-8"?>
<!-- Generator: Adobe Illustrator 23.0.1, SVG Export Plug-In . SVG Version: 6.00 Build 0)  -->
<svg version="1.1" id="icon-search" xmlns="http://www.w3.org/2000/svg" xmlns:xlink="http://www.w3.org/1999/xlink" x="0px"
	 y="0px" viewBox="0 0 24 24" style="enable-background:new 0 0 24 24;" xml:space="preserve">
<style type="text/css">
	.st0{fill-rule:evenodd;clip-rule:evenodd;fill:#4478BC;}
</style>
<path class="st0" d="M9.8,2.7c3.7,0,6.6,3,6.6,6.6c0,1.6-0.6,3.2-1.6,4.4c0,0,0.1,0.1,0.1,0.1l5.6,5.6c0.3,0.3,0.4,0.9,0,1.2
	c-0.3,0.3-0.9,0.3-1.2,0L13.7,15c-0.1-0.1-0.1-0.1-0.1-0.2c-3,2.1-7.1,1.4-9.2-1.6S2.9,6.1,5.9,4C7.1,3.2,8.4,2.8,9.8,2.7z M9.8,4.4
	c-2.8,0-5,2.2-5,5s2.2,5,5,5s5-2.2,5-5S12.5,4.4,9.8,4.4z M6.3,8.1c0.2,0,0.4,0.2,0.3,0.4c-0.2,2.2,0.7,3.4,2.7,3.7
	c0.2,0,0.3,0.2,0.3,0.4c0,0.2-0.2,0.3-0.4,0.3c-2.4-0.4-3.5-2-3.3-4.5C5.9,8.3,6.1,8.1,6.3,8.1L6.3,8.1z"/>
</svg>
